<svg width="760" height="120" xmlns="http://www.w3.org/2000/svg">
  <path d="m213.86,27.34c-4.09,-1.89 -8.7,-2.84 -13.81,-2.84l-25.88,0l0,71.89l11.42,0l0,-25.47l14.13,0c5.41,0 10.19,-0.95 14.34,-2.87c4.15,-1.92 7.38,-4.61 9.65,-8.13c2.27,-3.52 3.44,-7.5 3.44,-12.03s-1.19,-8.86 -3.59,-12.44c-2.39,-3.55 -5.62,-6.29 -9.71,-8.15l0,0.03l0.01,0.01zm-2.9,30.14c-2.9,2.25 -6.96,3.4 -12.16,3.4l-13.18,0l0,-26.3l13.72,0c4.78,0 8.64,1.12 11.6,3.4c2.93,2.25 4.42,5.55 4.42,9.87s-1.46,7.39 -4.36,9.66l-0.03,-0.03l-0.01,0z" fill="#142d99" id="svg_1"/>
  <path d="m272.67,49.56c-4.09,-2.39 -8.79,-3.6 -14.13,-3.6s-10.04,1.21 -14.14,3.6c-4.1,2.39 -7.26,5.55 -9.5,9.51c-2.24,3.93 -3.38,8.21 -3.38,12.79s1.14,8.83 3.38,12.73c2.24,3.9 5.44,7.03 9.56,9.4c4.12,2.36 8.82,3.55 14.08,3.55s10.04,-1.18 14.13,-3.55c4.09,-2.36 7.26,-5.5 9.5,-9.4c2.24,-3.9 3.38,-8.15 3.38,-12.73s-1.14,-8.86 -3.38,-12.79c-2.24,-3.93 -5.41,-7.09 -9.5,-9.51zm-0.36,30.55c-1.34,2.42 -3.23,4.34 -5.65,5.7c-2.42,1.36 -5.14,2.07 -8.1,2.07s-5.65,-0.68 -8.04,-2.07c-2.39,-1.36 -4.27,-3.28 -5.65,-5.7c-1.38,-2.42 -2.09,-5.2 -2.09,-8.27s0.69,-5.97 2.09,-8.42c1.37,-2.45 3.29,-4.37 5.71,-5.76c2.42,-1.36 5.08,-2.07 8.01,-2.07s5.65,0.68 8.04,2.07c2.39,1.36 4.27,3.31 5.65,5.79c1.38,2.51 2.09,5.29 2.09,8.36s-0.69,5.85 -2.03,8.27l-0.03,0.03z" fill="#142d99" id="svg_2"/>
  <path d="m327.57,68.47c-2.75,-0.95 -6.16,-1.86 -10.22,-2.66c-2.63,-0.56 -4.75,-1.06 -6.34,-1.54c-1.58,-0.47 -2.9,-1.09 -3.88,-1.86c-1.02,-0.74 -1.49,-1.71 -1.49,-2.87c0,-1.57 0.81,-2.84 2.39,-3.75c1.58,-0.92 3.89,-1.39 6.84,-1.39s5.59,0.5 8.01,1.48c2.42,1 4.39,2.48 5.92,4.46l7.17,-5.23c-2.15,-2.95 -4.99,-5.2 -8.58,-6.77c-3.56,-1.57 -7.74,-2.36 -12.52,-2.36c-5.89,0 -10.76,1.21 -14.58,3.6c-3.86,2.39 -5.77,5.88 -5.77,10.49c0,3.07 0.9,5.53 2.66,7.36c1.76,1.8 3.89,3.13 6.4,3.96c2.48,0.83 5.74,1.68 9.77,2.57c3.05,0.68 5.41,1.27 7.05,1.8c1.67,0.5 3.08,1.24 4.21,2.16c1.13,0.92 1.7,2.13 1.7,3.63c0,2.13 -1.05,3.81 -3.17,5.08c-2.12,1.27 -4.9,1.89 -8.37,1.89s-6.49,-0.74 -9.09,-2.22c-2.6,-1.48 -4.72,-3.78 -6.39,-6.94l-8.64,4.73c2.36,4.46 5.62,7.8 9.83,10.08c4.18,2.25 9.02,3.4 14.49,3.4c4.36,0 8.25,-0.71 11.68,-2.1c3.44,-1.39 6.1,-3.37 8.01,-5.91c1.91,-2.54 2.87,-5.44 2.87,-8.72s-0.96,-6 -2.9,-7.95c-1.94,-1.95 -4.27,-3.4 -7.02,-4.37l-0.06,-0.06l0.02,0.01z" fill="#142d99" id="svg_3"/>
  <path d="m361.28,34.46l-10.82,0l0,12.65l-7.89,0l0,9.46l7.89,0l0,21.78c0,3.37 0.51,6.35 1.49,8.98c1.02,2.63 2.84,4.82 5.5,6.53c2.66,1.71 6.4,2.57 11.18,2.57l9.15,0l0,-9.45l-7.47,0c-2.84,0 -4.9,-0.41 -6.19,-1.27c-1.29,-0.86 -2.09,-2.07 -2.39,-3.6c-0.3,-1.54 -0.48,-3.78 -0.48,-6.74l0,-18.79l16.53,0l0,-9.46l-16.53,0l0,-12.65l0.03,0l0,-0.01z" fill="#142d99" id="svg_4"/>
  <path d="m427.98,55.95c-0.84,-1.15 -1.79,-2.28 -2.87,-3.34c-1.97,-1.95 -4.33,-3.55 -7.05,-4.79c-2.75,-1.24 -5.74,-1.86 -8.99,-1.86c-4.51,0 -8.64,1.15 -12.4,3.49c-3.77,2.33 -6.78,5.47 -9.02,9.45c-2.24,3.96 -3.38,8.27 -3.38,12.94s1.14,8.95 3.38,12.88c2.24,3.93 5.26,7.06 9.02,9.34c3.76,2.3 7.92,3.43 12.4,3.43c4.78,0 8.99,-1.27 12.67,-3.84c2.39,-1.65 4.36,-3.55 5.92,-5.58l0,5.97c0,4.46 -1.49,8.13 -4.45,11.05c-2.99,2.89 -6.9,4.37 -11.74,4.37c-4.15,0 -7.8,-0.86 -10.97,-2.57c-3.14,-1.71 -5.77,-3.87 -7.83,-6.47l-7.17,6.88c2.99,3.49 6.58,6.32 10.82,8.48c4.21,2.16 9.18,3.22 14.85,3.22c5.26,0 9.95,-1 14.02,-2.98c4.09,-1.98 7.29,-4.88 9.65,-8.69c2.36,-3.81 3.53,-8.36 3.53,-13.71l0,-46.54l-10.4,0l0,8.83l0.03,0.03l-0.02,0.01zm-2.6,24.19c-1.46,2.42 -3.41,4.34 -5.86,5.7c-2.45,1.36 -5.17,2.07 -8.16,2.07s-5.59,-0.68 -8.01,-2.07c-2.42,-1.36 -4.33,-3.28 -5.77,-5.7c-1.43,-2.42 -2.12,-5.2 -2.12,-8.27s0.72,-5.88 2.12,-8.36c1.4,-2.51 3.35,-4.43 5.77,-5.79c2.42,-1.36 5.08,-2.07 8.01,-2.07s5.71,0.68 8.16,2.07c2.45,1.36 4.42,3.31 5.86,5.79c1.46,2.51 2.18,5.29 2.18,8.36s-0.72,5.85 -2.18,8.27z" fill="#142d99" id="svg_5"/>
  <path d="m467.75,48.65c-2.21,1.03 -4,2.33 -5.35,3.96c-0.84,1 -1.46,2.04 -1.91,3.07l0,-8.57l-9.65,0l0,49.31l10.82,0l0,-24.85c0,-3.84 0.63,-6.85 1.91,-9.04c1.29,-2.19 3.05,-3.72 5.29,-4.61c2.24,-0.89 4.9,-1.33 7.95,-1.33l7.26,0l0,-9.45l-8.52,0c-2.99,0 -5.59,0.5 -7.8,1.54l0,-0.03z" fill="#142d99" id="svg_6"/>
  <path d="m527.07,49.12c-3.79,-2.1 -8.19,-3.13 -13.09,-3.13s-9.62,1.12 -13.66,3.34c-4.07,2.22 -7.26,5.32 -9.62,9.25s-3.53,8.33 -3.53,13.21s1.17,9.34 3.47,13.24c2.33,3.9 5.53,6.97 9.62,9.19c4.09,2.22 8.7,3.34 13.81,3.34c4.78,0 9.15,-1 13.09,-3.04c3.94,-2.01 7.14,-4.85 9.56,-8.48l-8.31,-5.44c-1.73,2.54 -3.77,4.46 -6.13,5.76c-2.36,1.3 -5.02,1.95 -8.01,1.95c-3.2,0 -6.01,-0.71 -8.46,-2.1c-2.45,-1.39 -4.36,-3.37 -5.71,-5.91c-0.87,-1.62 -1.43,-3.43 -1.73,-5.35l40.64,0c0.21,-1.36 0.3,-2.84 0.3,-4.4c0,-4.73 -1.1,-8.95 -3.29,-12.68c-2.18,-3.72 -5.17,-6.65 -8.99,-8.72l0.03,-0.03l0.01,0zm-21.3,7.92c2.42,-1.39 5.23,-2.1 8.43,-2.1c2.9,0 5.47,0.59 7.65,1.8c2.18,1.21 3.89,2.93 5.14,5.2c0.87,1.54 1.43,3.31 1.82,5.23l-30.21,0c0.33,-1.51 0.84,-2.9 1.55,-4.23c1.35,-2.54 3.23,-4.49 5.65,-5.91l-0.03,0l0,0.01z" fill="#142d99" id="svg_7"/>
  <path d="m581.67,68.47c-2.75,-0.95 -6.16,-1.86 -10.22,-2.66c-2.63,-0.56 -4.75,-1.06 -6.34,-1.54c-1.58,-0.47 -2.9,-1.09 -3.88,-1.86c-1.02,-0.74 -1.49,-1.71 -1.49,-2.87c0,-1.57 0.81,-2.84 2.39,-3.75c1.58,-0.92 3.89,-1.39 6.84,-1.39s5.59,0.5 8.01,1.48c2.42,1 4.39,2.48 5.92,4.46l7.17,-5.23c-2.15,-2.95 -4.99,-5.2 -8.58,-6.77c-3.56,-1.57 -7.74,-2.36 -12.52,-2.36c-5.89,0 -10.76,1.21 -14.58,3.6c-3.86,2.39 -5.77,5.88 -5.77,10.49c0,3.07 0.9,5.53 2.66,7.36c1.76,1.8 3.89,3.13 6.4,3.96c2.48,0.83 5.74,1.68 9.77,2.57c3.05,0.68 5.41,1.27 7.05,1.8c1.67,0.5 3.08,1.24 4.21,2.16c1.14,0.92 1.7,2.13 1.7,3.63c0,2.13 -1.05,3.81 -3.17,5.08c-2.12,1.27 -4.9,1.89 -8.37,1.89s-6.48,-0.74 -9.08,-2.22c-2.6,-1.48 -4.72,-3.78 -6.4,-6.94l-8.64,4.73c2.36,4.46 5.62,7.8 9.83,10.08c4.18,2.25 9.02,3.4 14.49,3.4c4.36,0 8.25,-0.71 11.68,-2.1c3.44,-1.39 6.1,-3.37 8.01,-5.91c1.91,-2.54 2.87,-5.44 2.87,-8.72s-0.96,-6 -2.9,-7.95c-1.94,-1.95 -4.27,-3.4 -7.02,-4.37l-0.06,-0.06l0.02,0.01z" fill="#142d99" id="svg_8"/>
  <path d="m641.65,27.34c-4.09,-1.89 -8.7,-2.84 -13.81,-2.84l-25.88,0l0,71.89l11.42,0l0,-25.47l14.14,0c5.41,0 10.19,-0.95 14.34,-2.87c4.15,-1.92 7.38,-4.61 9.65,-8.13c2.27,-3.49 3.44,-7.5 3.44,-12.03s-1.2,-8.86 -3.59,-12.44c-2.39,-3.55 -5.62,-6.29 -9.71,-8.15l0,0.03l0,0.01zm-2.9,30.14c-2.9,2.25 -6.96,3.4 -12.16,3.4l-13.18,0l0,-26.3l13.72,0c4.78,0 8.64,1.12 11.59,3.4c2.93,2.25 4.42,5.55 4.42,9.87s-1.46,7.39 -4.36,9.66l-0.03,-0.03z" fill="#142d99" id="svg_9"/>
  <path d="m681.54,48.65c-2.21,1.03 -4,2.33 -5.35,3.96c-0.84,1 -1.46,2.04 -1.91,3.07l0,-8.57l-9.65,0l0,49.31l10.82,0l0,-24.85c0,-3.84 0.63,-6.85 1.91,-9.04c1.29,-2.19 3.05,-3.72 5.29,-4.61c2.24,-0.89 4.9,-1.33 7.95,-1.33l7.26,0l0,-9.45l-8.52,0c-2.99,0 -5.59,0.5 -7.8,1.54l0,-0.03z" fill="#142d99" id="svg_10"/>
  <path d="m751.62,59.08c-2.24,-3.93 -5.41,-7.09 -9.5,-9.51c-4.09,-2.39 -8.79,-3.6 -14.14,-3.6s-10.04,1.21 -14.14,3.6c-4.09,2.39 -7.26,5.55 -9.5,9.51c-2.24,3.93 -3.38,8.21 -3.38,12.79s1.14,8.83 3.38,12.73c2.24,3.9 5.44,7.03 9.56,9.4s8.82,3.55 14.08,3.55s10.04,-1.18 14.14,-3.55s7.26,-5.5 9.5,-9.4c2.24,-3.9 3.38,-8.15 3.38,-12.73s-1.14,-8.86 -3.38,-12.79zm-9.86,21.06c-1.35,2.42 -3.23,4.34 -5.65,5.7c-2.42,1.36 -5.14,2.07 -8.1,2.07s-5.65,-0.68 -8.04,-2.07c-2.39,-1.36 -4.27,-3.28 -5.65,-5.7c-1.38,-2.42 -2.09,-5.2 -2.09,-8.27s0.69,-5.97 2.09,-8.42c1.38,-2.45 3.29,-4.37 5.71,-5.76c2.42,-1.36 5.08,-2.07 8.01,-2.07s5.65,0.68 8.04,2.07c2.39,1.36 4.27,3.31 5.65,5.79c1.37,2.51 2.09,5.29 2.09,8.36s-0.69,5.85 -2.03,8.27l-0.03,0.03z" fill="#142d99" id="svg_11"/>
  <path d="m55.03,70.75c-11.6,0 -21.04,9.34 -21.04,20.8l0,4.88l10.64,0l0,-4.88c0,-5.67 4.66,-10.28 10.4,-10.28s10.4,4.61 10.4,10.28l0,4.88l10.64,0l0,-4.88c0,-11.46 -9.44,-20.8 -21.04,-20.8z" fill="#142d99" id="svg_12"/>
  <path d="m50.52,29.21l0,-10.52l-4.84,0c-23.52,0 -42.67,18.94 -42.67,42.22l0,35.51l10.64,0l0,-35.51c0,-17.46 14.37,-31.7 32.07,-31.7l4.84,0l-0.03,0l-0.01,0z" fill="#142d99" id="svg_13"/>
  <path d="m116.59,45.04c-10.13,5.41 -20.59,10.99 -20.59,28.99l0,22.37l10.64,0l0,-22.37c0,-11.7 5.65,-14.71 15,-19.74c2.27,-1.21 4.6,-2.45 7.02,-3.93l-5.56,-8.95c-2.18,1.33 -4.36,2.48 -6.51,3.63z" fill="#142d99" id="svg_14"/>
  <path d="m144.71,12.22c-1.67,6.77 -7.8,11.49 -14.91,11.49l-0.24,0c-4.72,0.06 -8.49,-2.63 -13.3,-6.03c-5.95,-4.2 -13.33,-9.4 -24.21,-9.4l-31.98,0l0,24.91c0,13.24 10.88,23.99 24.27,23.99l3.71,0l0,-10.52l-3.71,0c-7.5,0 -13.63,-6.06 -13.63,-13.47l0,-14.39l21.37,0c7.47,0 12.61,3.6 18.02,7.45c5.62,3.96 11.45,8.07 19.54,7.98l0.18,0c12.01,0 22.38,-8.04 25.22,-19.53c0.9,-3.58 1.52,-7.3 1.82,-10.78l-10.61,-0.92c-0.27,2.98 -0.81,6.15 -1.55,9.22l0.01,0z" fill="#142d99" id="svg_15"/>
</svg>